# Blender v2.79 (sub 0) OBJ File: ''
# www.blender.org
mtllib m4160B1A12.mtl
o mesh0
v -357.173523 -25.504219 -81.525475
v -356.778809 -25.504217 -79.558563
v -362.379944 2.378221 -107.531769
v -362.675110 -0.211332 -109.002686
v -362.379944 0.420951 -107.531769
v -362.675110 5.937936 -109.002701
v -356.755829 -29.561491 -79.432533
v -371.228882 -11.703794 -107.075340
v -371.032104 -11.253713 -106.094711
v -371.228882 -8.852012 -107.075340
v -367.559998 -30.004959 -88.730614
v -371.228882 -18.519072 -107.075340
v -370.992767 -14.551564 -105.898598
v -370.992767 -18.013241 -105.898598
v -367.474121 -29.004793 -88.302795
v -366.984833 -30.004961 -85.864784
v -368.838257 -28.804760 -95.100525
v -368.934357 -30.004959 -95.579475
v -368.140167 -28.804760 -91.621788
v -367.474121 -29.004793 -88.302795
v -371.032104 -11.253713 -106.094711
v -367.559998 -30.004959 -88.730614
v -371.228882 -8.852012 -107.075340
v -367.474121 -29.004793 -88.302795
v -366.984833 -30.004961 -85.864784
v -371.228882 -8.852012 -107.075340
v -363.161743 -11.703796 -110.286110
v -362.964935 -11.253716 -109.305511
v -363.161743 -8.852015 -110.286125
v -359.492828 -30.004959 -91.941399
v -363.161713 -18.519072 -110.286110
v -362.925598 -14.551566 -109.109375
v -362.925598 -18.013245 -109.109375
v -359.406982 -29.004793 -91.513573
v -358.917725 -30.004959 -89.075569
v -360.771057 -28.804760 -98.311302
v -360.867157 -30.004959 -98.790245
v -360.072998 -28.804760 -94.832565
v -359.406982 -29.004793 -91.513573
v -362.964935 -11.253716 -109.305511
v -359.492828 -30.004959 -91.941399
v -363.161743 -8.852015 -110.286125
v -359.406982 -29.004793 -91.513573
v -358.917725 -30.004959 -89.075569
v -363.161743 -8.852015 -110.286125
v -368.838257 -28.804760 -95.100525
v -370.992767 -18.013241 -105.898598
v -368.934357 -30.004959 -95.579475
v -370.992767 -14.551564 -105.898598
v -370.992767 -18.013241 -105.898598
v -371.228882 -18.519072 -107.075340
v -368.934357 -30.004959 -95.579475
v -371.228882 -11.703794 -107.075340
v -370.992767 -14.551564 -105.898598
v -368.140167 -28.804760 -91.621788
v -368.140167 -28.804760 -91.621788
v -367.559998 -30.004959 -88.730614
v -371.228882 -11.703794 -107.075340
v -370.992767 -14.551564 -105.898598
v -368.838257 -28.804760 -95.100525
v -360.771057 -28.804760 -98.311302
v -362.925598 -18.013245 -109.109375
v -360.867157 -30.004959 -98.790245
v -362.925598 -14.551566 -109.109375
v -362.925598 -18.013245 -109.109375
v -363.161713 -18.519072 -110.286110
v -360.867157 -30.004959 -98.790245
v -363.161743 -11.703796 -110.286110
v -362.925598 -14.551566 -109.109375
v -360.072998 -28.804760 -94.832565
v -360.072998 -28.804760 -94.832565
v -359.492828 -30.004959 -91.941399
v -363.161743 -11.703796 -110.286110
v -362.925598 -14.551566 -109.109375
v -360.771057 -28.804760 -98.311302
v -347.463348 -27.007223 -72.341515
v -348.782379 -18.503056 -78.945129
v -354.546265 10.078951 -107.667961
v -354.546265 10.078951 -107.667961
v -354.841431 9.446669 -109.138885
v -347.463348 -27.007223 -72.341515
v -354.546265 12.036220 -107.667961
v -354.841461 15.595936 -109.138893
v -348.782379 -18.503056 -78.945129
v -348.387665 -18.503056 -76.978218
v -348.782379 -18.503056 -78.945129
v -346.223328 -27.007223 -66.161957
v -348.387665 -18.503056 -76.978218
v -347.463348 -27.007223 -72.341515
v -348.387665 -18.503056 -76.978218
v -346.223328 -27.007223 -66.161957
v -354.841461 15.595936 -109.138893
v -364.641083 -28.561321 -77.416725
v -365.058746 -24.504051 -79.509666
v -370.074310 0.420953 -104.534172
v -363.401001 -28.561323 -71.237160
v -364.664062 -24.504051 -77.542755
v -370.074310 0.420953 -104.534172
v -370.369507 -0.211331 -106.005096
v -364.641083 -28.561321 -77.416725
v -370.074341 2.378226 -104.534172
v -370.369507 5.937937 -106.005096
v -365.058746 -24.504051 -79.509666
v -364.664062 -24.504051 -77.542755
v -370.369507 5.937937 -106.005096
v -364.664062 -24.504051 -77.542755
v -363.401001 -28.561323 -71.237160
v -370.074341 2.378226 -104.534172
v -356.755829 -29.561491 -79.432533
v -357.173523 -25.504219 -81.525475
v -362.379944 0.420951 -107.531769
v -355.515747 -29.561493 -73.252983
v -356.778809 -25.504217 -79.558563
v -362.675110 5.937936 -109.002701
v -356.778809 -25.504217 -79.558563
v -355.515747 -29.561493 -73.252983
v -362.379944 2.378221 -107.531769
v -362.379944 0.420951 -107.531769
v -357.173523 -25.504219 -81.525475
v -370.074341 2.378226 -104.534172
v -370.074310 0.420953 -104.534172
v -365.058746 -24.504051 -79.509666
v -348.422760 -30.004959 -79.535469
v -348.302643 -28.504713 -78.936783
v -354.135834 0.420954 -108.004944
v -347.182709 -30.004961 -73.355904
v -354.431000 -0.211330 -109.475861
v -354.135834 2.378222 -108.004944
v -347.907928 -28.504713 -76.969864
v -354.431030 5.937937 -109.475876
v -339.100342 -30.004963 -67.311310
v -338.980194 -28.504715 -66.712631
v -346.783905 10.192442 -105.600433
v -337.860260 -30.004969 -61.131752
v -347.079071 9.560158 -107.071365
v -346.783905 12.149711 -105.600449
v -338.585480 -28.504719 -64.745712
v -347.079102 15.709425 -107.071365
v -337.237549 -28.409975 -53.392189
v -337.532715 -24.850250 -54.863125
v -347.715027 25.641819 -105.603973
v -337.237549 -22.260708 -53.392220
v -348.010193 25.009535 -107.074898
v -347.715027 27.599087 -105.603973
v -337.532715 -22.892996 -54.863136
v -348.010193 31.158802 -107.074905
v -351.529480 -28.242449 -54.735008
v -351.824677 -24.682730 -56.205948
v -362.006989 25.809347 -106.946777
v -351.529510 -22.093182 -54.735027
v -362.302124 25.177063 -108.417702
v -362.006989 27.766621 -106.946777
v -351.824677 -22.725466 -56.205948
v -362.302185 31.326334 -108.417702
v -348.286316 -30.004965 -61.396778
v -348.166168 -28.504717 -60.798096
v -357.475555 17.658768 -107.189011
v -347.046265 -30.004965 -55.217228
v -357.770721 17.026484 -108.659943
v -357.475555 19.616037 -107.189011
v -347.771484 -28.504717 -58.831188
v -357.770752 23.175751 -108.659943
v -334.496704 -25.004133 -78.000443
v -334.376556 -23.503885 -77.401756
v -339.201263 0.420953 -101.444458
v -333.256622 -25.004135 -71.820892
v -339.496460 -0.211332 -102.915382
v -339.201294 2.378220 -101.444466
v -333.981873 -23.503887 -75.434845
v -339.496460 5.937937 -102.915390
v -340.435944 -30.004961 -77.437904
v -340.315826 -28.504713 -76.839226
v -346.149017 0.420954 -105.907410
v -339.195892 -30.004963 -71.258362
v -346.444214 -0.211331 -107.378326
v -346.149017 2.378221 -105.907410
v -339.921112 -28.504715 -74.872314
v -346.444214 5.937938 -107.378342
vt 1.186523 -2.441406
vt 2.113281 0.376953
vt 1.036133 -2.511719
vt 2.181641 0.229492
vt 2.316406 0.234375
vt 2.100586 0.699219
vt 1.172852 -2.814453
vt 1.408203 -0.274414
vt 1.408203 0.009766
vt 1.309570 -0.230469
vt -0.239258 -1.909180
vt 1.408203 -0.956055
vt 1.290039 -0.559570
vt 1.290039 -0.906250
vt -0.282227 -1.809570
vt -0.527344 -1.910156
vt 0.449219 -1.907227
vt 0.401367 -1.787109
vt 0.051758 -1.788086
vt -0.282227 -1.809570
vt -0.239258 -1.909180
vt 1.309570 -0.230469
vt 1.408203 0.009766
vt -0.282227 -1.809570
vt 1.408203 0.009766
vt -0.527344 -1.910156
vt 1.666992 -0.289063
vt 1.788086 -0.031250
vt 1.596680 -0.207031
vt -0.515625 -1.075195
vt 1.379883 -0.907227
vt 1.439453 -0.498047
vt 1.293945 -0.811523
vt -0.512695 -0.965820
vt -0.777344 -0.954102
vt 0.109375 -1.364258
vt 0.116211 -1.235352
vt -0.201172 -1.087891
vt -0.512695 -0.965820
vt -0.515625 -1.075195
vt 1.596680 -0.207031
vt 1.788086 -0.031250
vt -0.512695 -0.965820
vt 1.788086 -0.031250
vt -0.777344 -0.954102
vt 0.401367 -1.787109
vt 0.449219 -1.907227
vt 1.290039 -0.906250
vt 1.290039 -0.559570
vt 1.290039 -0.906250
vt 0.449219 -1.907227
vt 1.408203 -0.956055
vt 1.408203 -0.274414
vt 0.051758 -1.788086
vt 1.290039 -0.559570
vt 0.051758 -1.788086
vt 1.408203 -0.274414
vt -0.239258 -1.909180
vt 1.290039 -0.559570
vt 0.401367 -1.787109
vt 0.116211 -1.235352
vt 0.109375 -1.364258
vt 1.293945 -0.811523
vt 1.439453 -0.498047
vt 1.293945 -0.811523
vt 0.109375 -1.364258
vt 1.379883 -0.907227
vt 1.666992 -0.289063
vt -0.201172 -1.087891
vt 1.439453 -0.498047
vt -0.201172 -1.087891
vt 1.666992 -0.289063
vt -0.515625 -1.075195
vt 1.439453 -0.498047
vt 0.116211 -1.235352
vt -0.366211 -2.822266
vt 2.617188 0.275391
vt 0.191406 -2.113281
vt 2.617188 0.275391
vt -0.366211 -2.822266
vt 2.741211 0.223633
vt 2.617188 0.438477
vt 2.741211 0.735352
vt 0.191406 -2.113281
vt 0.025391 -2.114258
vt 0.191406 -2.113281
vt 0.025391 -2.114258
vt -0.882813 -2.829102
vt -0.366211 -2.822266
vt 0.025391 -2.114258
vt 2.741211 0.735352
vt -0.882813 -2.829102
vt 0.995117 -2.848633
vt 2.005859 0.199219
vt 1.010742 -2.471680
vt 0.659180 -3.116211
vt 0.860352 -2.541992
vt 2.005859 0.199219
vt 0.995117 -2.848633
vt 2.140625 0.204102
vt 1.937500 0.346680
vt 1.923828 0.668945
vt 1.010742 -2.471680
vt 0.860352 -2.541992
vt 1.923828 0.668945
vt 0.659180 -3.116211
vt 0.860352 -2.541992
vt 1.937500 0.346680
vt 1.172852 -2.814453
vt 2.181641 0.229492
vt 1.186523 -2.441406
vt 0.812500 -3.078125
vt 1.036133 -2.511719
vt 2.100586 0.699219
vt 0.812500 -3.078125
vt 1.036133 -2.511719
vt 2.113281 0.376953
vt 2.181641 0.229492
vt 1.186523 -2.441406
vt 1.937500 0.346680
vt 1.010742 -2.471680
vt 2.005859 0.199219
vt -0.789063 -2.735352
vt 2.464844 -1.446289
vt -0.782227 -2.600586
vt -1.263672 -2.516602
vt 2.554688 -1.545898
vt 2.533203 -1.298828
vt -0.933594 -2.531250
vt 2.771484 -1.082031
vt 0.106445 -3.570313
vt 1.617188 0.840820
vt 0.007813 -3.478516
vt -0.365234 -3.792969
vt 1.751953 0.846680
vt 1.548828 0.989258
vt -0.142578 -3.549805
vt 1.536133 1.310547
vt -2.813477 -1.699219
vt 3.092773 0.531250
vt -2.575195 -1.483398
vt -2.596680 -1.235352
vt 3.183594 0.431641
vt 3.161133 0.678711
vt -2.506836 -1.334961
vt 3.399414 0.895508
vt -1.798828 -2.910156
vt 2.611328 1.607422
vt -1.673828 -2.613281
vt -1.798828 -2.398438
vt 2.735352 1.555664
vt 2.611328 1.770508
vt -1.673828 -2.450195
vt 2.735352 2.067383
vt -2.181641 -2.107422
vt 3.006836 -0.130859
vt -2.174805 -1.972656
vt -2.656250 -1.888672
vt 3.097656 -0.231445
vt 3.076172 0.016602
vt -2.326172 -1.903320
vt 3.313477 0.233398
vt -0.866211 -2.310547
vt 1.826172 -1.221680
vt -0.859375 -2.175781
vt -1.339844 -2.091797
vt 1.916992 -1.321289
vt 1.895508 -1.073242
vt -1.010742 -2.106445
vt 2.132813 -0.857422
vt 0.005859 -3.094727
vt 2.410156 -0.552734
vt -0.044922 -2.970703
vt -0.516602 -3.097656
vt 2.534180 -0.604492
vt 2.410156 -0.389648
vt -0.210938 -2.970703
vt 2.534180 -0.092773
vn 0.1373 0.9838 0.1153
vn -0.0459 -0.6058 -0.7943
vn 0.0884 -0.9883 -0.1240
vn 0.2803 -0.4790 0.8319
vn 0.3024 -0.1377 0.9432
vn 0.3033 -0.1021 0.9474
vn -0.0624 0.4791 -0.8756
vn -0.0454 -0.6093 -0.7916
vn 0.3031 -0.1046 0.9472
vn -0.0619 0.4827 -0.8736
vn 0.2982 0.2455 0.9224
vn -0.0464 -0.6026 -0.7967
vn 0.2032 0.8707 0.4478
vn -0.0623 0.4791 -0.8756
vn 0.0147 -0.8707 -0.4915
vn -0.0851 0.1237 -0.9887
vn 0.1644 -0.9533 0.2535
vn 0.2981 0.2531 0.9203
vn 0.1635 -0.9544 0.2496
vn 0.2967 0.2769 0.9139
vn -0.0788 -0.2770 -0.9576
vn 0.0545 0.9544 -0.2934
vn 0.2747 -0.5224 0.8072
vn -0.0567 0.5249 -0.8493
vn 0.2963 0.2456 0.9230
vn -0.0802 -0.2483 -0.9654
vn 0.2089 0.8600 0.4656
vn -0.0460 -0.6050 -0.7949
vn 0.0173 -0.8779 -0.4784
vn 0.3032 -0.1046 0.9472
vn 0.2983 0.2455 0.9224
vn -0.0463 -0.6026 -0.7967
vn 0.2803 -0.4790 0.8318
vn 0.0148 -0.8707 -0.4915
vn 0.1643 -0.9533 0.2535
vn 0.2981 0.2531 0.9204
vn 0.2968 0.2770 0.9139
vn 0.0546 0.9544 -0.2934
vn 0.2962 0.2456 0.9230
vn -0.0460 -0.6051 -0.7949
vn 0.2658 -0.5860 0.7655
vn -0.0552 0.5347 -0.8432
vn 0.2996 -0.1794 0.9370
vn -0.0804 0.2401 -0.9674
vn 0.0679 0.9703 -0.2322
vn -0.0506 -0.5727 -0.8182
vn 0.1650 -0.9516 0.2594
vn -0.0807 -0.2379 -0.9679
vn -0.0478 -0.5926 -0.8041
vn 0.2935 0.2872 0.9118
vn 0.2124 0.8502 0.4816
vn -0.0478 -0.5929 -0.8038
vn 0.0166 -0.8760 -0.4821
vn -0.0573 -0.5212 -0.8515
vn 0.0882 -0.9883 -0.1247
vn 0.1577 0.9642 0.2132
vn 0.0680 0.9703 -0.2322
vn 0.2934 0.2872 0.9118
vn -0.0572 -0.5212 -0.8515
vn 0.1576 0.9642 0.2132
vn -0.0647 -0.5111 -0.8571
vn -0.0505 -0.6159 -0.7862
vn 0.2764 0.5332 0.7996
vn -0.0447 -0.6147 -0.7875
vn -0.0444 -0.6164 -0.7862
vn 0.3034 -0.1011 0.9475
vn 0.0809 0.9835 -0.1616
vn -0.0848 0.1346 -0.9873
vn 0.1293 0.9884 0.0794
vn 0.0826 -0.9846 -0.1538
vn 0.0639 -0.9672 -0.2459
vn 0.1079 0.9936 -0.0341
vn 0.1112 -0.9937 -0.0100
vn 0.1551 0.9670 0.2019
vn 0.2426 0.6981 0.6736
vn -0.0450 -0.6122 -0.7894
vn -0.0255 -0.7211 -0.6924
vn 0.1372 0.9840 0.1137
vn -0.0458 -0.6072 -0.7932
vn 0.1307 0.9882 0.0796
vn 0.1296 -0.9882 0.0814
vn 0.0892 0.9881 -0.1253
vn 0.3025 -0.1385 0.9430
vn -0.0455 -0.6090 -0.7919
vn 0.3034 -0.1016 0.9474
vn 0.1371 0.9837 0.1163
vn -0.0461 -0.6053 -0.7947
vn 0.0885 -0.9884 -0.1236
vn -0.0780 -0.2901 -0.9538
vn -0.0117 -0.7817 -0.6236
vn 0.2288 0.7806 0.5816
vn 0.2954 0.2883 0.9108
vn 0.1370 0.9841 0.1130
vn -0.0457 -0.6076 -0.7929
vn 0.1305 0.9882 0.0801
vn -0.0779 -0.2896 -0.9540
vn -0.0118 -0.7815 -0.6238
vn 0.2299 0.7803 0.5816
vn 0.2948 0.2879 0.9112
vn 0.3028 -0.1042 0.9474
vn -0.0844 0.1401 -0.9865
vn -0.0459 -0.6057 -0.7943
vn -0.0844 0.1411 -0.9864
vn -0.0461 -0.6052 -0.7947
vn 0.3030 -0.1038 0.9473
vn -0.0457 -0.6077 -0.7929
vn 0.2814 -0.4682 0.8376
vn 0.0886 -0.9884 -0.1231
vn 0.3035 -0.1033 0.9472
vn 0.0887 -0.9884 -0.1231
vn -0.0855 0.1033 -0.9910
vn -0.0446 -0.6147 -0.7875
vn 0.2815 -0.4682 0.8376
vn 0.3034 -0.1033 0.9472
vn -0.0438 -0.6201 -0.7833
vn 0.2961 0.2887 0.9105
vn 0.0810 0.9835 -0.1616
vn -0.0388 -0.6503 -0.7586
vn -0.0389 -0.6504 -0.7586
vn -0.0441 -0.6180 -0.7849
vn -0.0466 -0.6019 -0.7972
usemtl m0010B0A18_0
s 1
f 1/1/1 3/2/2 2/3/3
f 3/2/4 5/4/5 4/5/6
f 4/5/6 6/6/7 3/2/4
f 7/7/8 4/5/6 5/4/5
f 8/8/9 10/9/10 9/10/11
f 9/10/11 11/11/12 8/8/9
f 12/12/13 8/8/14 13/13/4
f 13/13/4 14/14/15 12/12/13
f 15/15/16 16/16/17 11/11/18
f 11/11/19 18/17/20 17/18/21
f 17/18/21 19/19/22 11/11/19
f 20/20/23 22/21/24 21/22/25
f 21/22/25 23/23/26 20/20/23
f 24/24/27 26/25/28 25/26/29
f 27/27/30 29/28/10 28/29/31
f 28/29/31 30/30/32 27/27/30
f 31/31/13 27/27/14 32/32/33
f 32/32/33 33/33/34 31/31/13
f 34/34/16 35/35/35 30/30/36
f 30/30/19 37/36/37 36/37/21
f 36/37/21 38/38/38 30/30/19
f 39/39/23 41/40/24 40/41/39
f 40/41/39 42/42/26 39/39/23
f 43/43/27 45/44/40 44/45/29
f 46/46/41 48/47/42 47/48/43
f 47/48/43 49/49/44 46/46/41
f 50/50/45 52/51/46 51/52/47
f 53/53/48 55/54/49 54/55/50
f 56/56/51 58/57/52 57/58/53
f 59/59/54 56/56/55 60/60/56
f 61/61/41 63/62/42 62/63/43
f 62/63/43 64/64/44 61/61/41
f 65/65/57 67/66/46 66/67/47
f 68/68/48 70/69/49 69/70/58
f 71/71/51 73/72/52 72/73/53
f 74/74/59 71/71/55 75/75/60
f 76/76/61 78/77/62 77/78/63
f 79/79/64 81/80/65 80/81/66
f 80/81/66 82/82/67 79/79/64
f 82/82/67 80/81/66 83/83/68
f 84/84/69 79/79/64 82/82/67
f 82/82/67 83/83/68 85/85/70
f 85/85/70 84/84/69 82/82/67
f 86/86/71 88/87/72 87/88/73
f 87/88/73 89/89/74 86/86/71
f 90/90/75 92/91/76 91/92/77
f 93/93/78 95/94/79 94/95/80
f 94/95/80 96/96/81 93/93/78
f 96/96/81 94/95/80 97/97/82
f 98/98/83 100/99/84 99/100/85
f 99/100/85 101/101/33 98/98/83
f 101/101/33 99/100/85 102/102/7
f 103/103/86 101/101/87 104/104/88
f 105/105/89 107/106/90 106/107/91
f 106/107/91 108/108/92 105/105/89
f 109/109/93 111/110/94 110/111/95
f 110/111/95 112/112/81 109/109/93
f 112/112/81 110/111/95 113/113/82
f 114/114/96 116/115/97 115/116/98
f 115/116/98 117/117/99 114/114/96
f 118/118/100 117/117/101 119/119/102
f 120/120/103 122/121/104 121/122/105
f 123/123/69 125/124/106 124/125/107
f 124/125/107 126/126/108 123/123/69
f 125/124/106 123/123/69 127/127/109
f 127/127/109 128/128/67 125/124/106
f 124/125/107 125/124/106 128/128/67
f 128/128/67 129/129/110 124/125/107
f 126/126/108 124/125/107 129/129/110
f 129/129/110 128/128/67 130/130/111
f 130/130/111 126/126/108 129/129/110
f 130/130/111 128/128/67 127/127/109
f 131/131/69 133/132/112 132/133/113
f 132/133/113 134/134/110 131/131/69
f 133/132/112 131/131/69 135/135/114
f 135/135/114 136/136/67 133/132/112
f 132/133/113 133/132/112 136/136/67
f 136/136/67 137/137/110 132/133/113
f 134/134/110 132/133/113 137/137/110
f 137/137/110 136/136/67 138/138/111
f 138/138/111 134/134/110 137/137/110
f 138/138/111 136/136/67 135/135/114
f 139/139/111 141/140/115 140/141/116
f 140/141/116 142/142/109 139/139/111
f 141/140/115 139/139/111 143/143/114
f 143/143/114 144/144/117 141/140/115
f 145/145/118 141/140/115 144/144/117
f 140/141/116 141/140/115 145/145/118
f 145/145/118 142/142/109 140/141/116
f 146/146/111 142/142/109 145/145/118
f 145/145/118 144/144/117 146/146/111
f 143/143/114 146/146/111 144/144/117
f 147/147/111 149/148/115 148/149/116
f 148/149/116 150/150/114 147/147/111
f 149/148/115 147/147/111 151/151/114
f 151/151/114 152/152/67 149/148/115
f 153/153/119 149/148/115 152/152/67
f 148/149/116 149/148/115 153/153/119
f 153/153/119 150/150/114 148/149/116
f 154/154/111 150/150/114 153/153/119
f 153/153/119 152/152/67 154/154/111
f 151/151/114 154/154/111 152/152/67
f 155/155/69 157/156/120 156/157/113
f 156/157/113 158/158/110 155/155/69
f 157/156/120 155/155/69 159/159/109
f 159/159/109 160/160/67 157/156/120
f 156/157/113 157/156/120 160/160/67
f 160/160/67 161/161/110 156/157/113
f 158/158/110 156/157/113 161/161/110
f 161/161/110 160/160/67 162/162/111
f 162/162/111 158/158/110 161/161/110
f 162/162/111 160/160/67 159/159/109
f 163/163/69 165/164/121 164/165/107
f 164/165/107 166/166/110 163/163/69
f 165/164/121 163/163/69 167/167/114
f 167/167/114 168/168/117 165/164/121
f 164/165/107 165/164/121 168/168/117
f 168/168/117 169/169/110 164/165/107
f 166/166/110 164/165/107 169/169/110
f 169/169/110 168/168/117 170/170/111
f 170/170/111 166/166/110 169/169/110
f 170/170/111 168/168/117 167/167/114
f 171/171/69 173/172/106 172/173/113
f 172/173/113 174/174/110 171/171/69
f 173/172/106 171/171/69 175/175/109
f 175/175/109 176/176/67 173/172/106
f 172/173/113 173/172/106 176/176/67
f 176/176/67 177/177/110 172/173/113
f 174/174/110 172/173/113 177/177/110
f 177/177/110 176/176/67 178/178/111
f 178/178/111 174/174/110 177/177/110
f 178/178/111 176/176/67 175/175/109
